<svg t="1586013821075" class="icon" viewBox="0 0 1266 1024" version="1.1" xmlns="http://www.w3.org/2000/svg" p-id="16464" width="64" height="64"><path d="M508.518745 0 359.983618 0c-79.893782 0-122.270038 43.185431-141.799357 93.751519l-103.979002 265.481773C72.963075 364.464732 0 412.387515 0 503.062943l0 337.759501 116.93929 0 0 84.105171c0 132.866554 158.280783 131.324217 158.280783 0l0-84.105171 715.133028 0 0 84.105171c0 131.324217 158.280783 132.866554 158.280783 0l0-84.105171 116.93929 0L1265.573174 503.062943c0.039233-90.675428-72.955719-138.598211-114.139054-143.829651l0 0L1047.480864 93.751519c-19.557517-50.567315-61.939903-93.751519-141.926863-93.751519L758.738985 0 508.518745 0 508.518745 0zM254.555457 636.31692c-49.523969 0-89.717904-40.932001-89.717904-91.46376 0-50.573445 40.193935-91.499315 89.717904-91.499315 49.526421 0 89.686027 40.92587 89.686027 91.499315C344.241484 595.392275 304.081878 636.31692 254.555457 636.31692L254.555457 636.31692 254.555457 636.31692zM221.820645 353.005096 300.082591 147.592315c9.783663-29.32279 24.453027-50.579575 58.760826-50.915505l547.97584 0c34.158224 0.33593 48.845978 21.593941 58.645579 50.915505l78.286466 205.412781L221.820645 353.005096 221.820645 353.005096 221.820645 353.005096zM1011.048368 636.31692c-49.531325 0-89.686027-40.932001-89.686027-91.46376 0-50.573445 40.162058-91.499315 89.686027-91.499315 49.58527 0 89.744876 40.92587 89.744876 91.499315C1100.793244 595.392275 1060.626282 636.31692 1011.048368 636.31692L1011.048368 636.31692 1011.048368 636.31692zM1011.048368 636.31692" p-id="16465" fill="#2c2c2c"></path></svg>