<svg height="55" viewBox="0 0 1140 55" width="1140" xmlns="http://www.w3.org/2000/svg" xmlns:xlink="http://www.w3.org/1999/xlink"><mask id="a" fill="#fff"><path d="m.16450213 0h28.74338297v20.348783h-28.74338297z" fill="#fff" fill-rule="evenodd"/></mask><mask id="b" fill="#fff"><path d="m.02426269.32758242h80.87399921v15.38670328h-80.87399921z" fill="#fff" fill-rule="evenodd"/></mask><g fill="none" fill-rule="evenodd"><g fill-rule="nonzero"><path d="m59.4743826 8.74185769c0 1.25361249-1.0194685 2.26338511-2.2851182 2.26338511-1.2656498 0-2.2861109-1.00977262-2.2861109-2.26338511 0-1.25361248.9847252-2.26338504 2.2861109-2.26338504 1.300393.03441289 2.2851182 1.04418546 2.2851182 2.26338504zm-9.4233827 4.56216621v.5574888s-1.0899478-1.3932304-3.4098093-1.3932304c-3.8326852 0-6.8216039 2.8906828-6.8216039 6.8953602 0 3.9702644 2.9531827 6.8963435 6.8216039 6.8963435 2.3555975 0 3.4098093-1.4286267 3.4098093-1.4286267v.592885c0 .2782529.2114379.4876798.4923626.4876798h2.84796v-13.09558s-2.6017788 0-2.84796 0c-.2809247 0-.4923626.2438399-.4923626.4876798zm0 8.3937959c-.5271059.7659326-1.5823104 1.4276433-2.8479601 1.4276433-2.2503748 0-3.9726512-1.3932304-3.9726512-3.7618206 0-2.3676069 1.7222764-3.7608375 3.9726512-3.7608375 1.2309064 0 2.3555975.6961236 2.8479601 1.4276435zm5.4507315 4.2131211h3.375066v-13.0945968h-3.375066zm50.4205076-13.4426586c-2.319862 0-3.40981 1.3932304-3.40981 1.3932304v-7.34862716h-3.3760584v19.39903856h2.8479604c.280924 0 .492363-.2448231.492363-.4876798v-.592885s1.089948 1.4286267 3.410802 1.4286267c3.832685 0 6.821604-2.9260791 6.821604-6.8963435 0-3.9702645-2.988919-6.8953602-6.786861-6.8953602zm-.561849 10.6217847c-1.301387 0-2.320855-.6617107-2.847961-1.4276433v-4.6663881c.527106-.697107 1.651797-1.4276435 2.847961-1.4276435 2.250374 0 3.972651 1.3922473 3.972651 3.7608375s-1.722277 3.7608374-3.972651 3.7608374zm-7.9820314-4.9446408v7.8009108h-3.375066v-7.4184361c0-2.1591632-.7038005-3.0293177-2.6027715-3.0293177-1.0194684 0-2.0736802.5220927-2.7417447 1.2880253v9.1253156h-3.3760586v-13.09558h2.6722581c.2819173 0 .4923626.2438399.4923626.4876798v.5574888c.9847251-1.0097725 2.2851181-1.3932304 3.5865039-1.3932304 1.4770876 0 2.7070014.4178708 3.6917266 1.2536124 1.196163.9753597 1.6527896 2.2289721 1.6527896 4.4235315zm-20.2881171-5.6771439c-2.3208542 0-3.410802 1.3932304-3.410802 1.3932304v-7.34862716h-3.3750658v19.39903856h2.8479599c.2809247 0 .4923626-.2448231.4923626-.4876798v-.592885s1.0899478 1.4286267 3.4108019 1.4286267c3.8326853 0 6.821604-2.9260791 6.821604-6.8963435.0347433-3.9702645-2.9541754-6.8953602-6.7868606-6.8953602zm-.5628419 10.6217847c-1.300393 0-2.3198614-.6617107-2.8479601-1.4276433v-4.6663881c.5280987-.697107 1.6527898-1.4276435 2.8479601-1.4276435 2.2503749 0 3.9736439 1.3922473 3.9736439 3.7608375s-1.723269 3.7608374-3.9736439 3.7608374zm-9.1414654-10.6217847c1.0194685 0 1.547567.1740309 1.547567.1740309v3.1001098s-2.8132167-.9409468-4.571229 1.0441855v9.1597285h-3.3760586v-13.1299929h2.84796c.2819173 0 .4923626.2438399.4923626.4876798v.5574888c.6333212-.7315197 2.0041936-1.3932304 3.059398-1.3932304zm-35.0560159 12.2588552c-.175702-.4178709-.3514039-.8701546-.5271059-1.2536126-.2809246-.6263145-.5628419-1.2191995-.8090231-1.7757051l-.0347433-.0353961c-2.4260769-5.223877-5.0288484-10.5175629-7.7705931-15.74143989l-.1062153-.20942703c-.2809246-.52209273-.5618493-1.07958157-.8437665-1.63608719-.3514039-.62729785-.7028078-1.2890086-1.2656497-1.91630645-1.1246911-1.39224727-2.7427375-2.15916314-4.4650137-2.15916314-1.7580123 0-3.3403227.76691587-4.5007497 2.09033736-.5280987.62631463-.9142459 1.28802537-1.2656498 1.91532322-.2819172.55650562-.5628419 1.11399446-.84376649 1.63707042l-.10621531.20844379c-2.70700143 5.22387691-5.3445162 10.51756291-7.77059303 15.74143981l-.03474332.0698091c-.24618128.5574888-.52809855 1.1493905-.80902316 1.7766884-.17570196.3824747-.35140393.8003455-.52710589 1.2536125-.45761924 1.2880253-.59758521 2.507225-.42188324 3.7608374.38614725 2.6124301 2.14415954 4.8060061 4.57023636 5.7813658.91424581.3834579 1.86422761.5574888 2.84796007.5574888.28191727 0 .6333212-.0353961.91424581-.0698089 1.16042708-.1396181 2.3565902-.5220928 3.5170172-1.1838035 1.4413517-.8013288 2.8122241-1.9507194 4.3597911-3.6222027 1.5465744 1.6714833 2.9531828 2.8208739 4.3597911 3.6222027 1.1604271.6617107 2.3555975 1.0441854 3.5160246 1.1838035.2809246.0344128.6333212.0698089.9142458.0698089.9847251 0 1.9694503-.1740309 2.84796-.5574888 2.4618129-.9753597 4.1840892-3.2043319 4.5712291-5.7813658.2809246-1.2191996.1409587-2.4374159-.3166606-3.7264245zm-15.8578467 1.8111013c-1.8989708-2.3685902-3.1288846-4.5965791-3.5507678-6.4774895-.175702-.8013287-.211438-1.4974524-.1062153-2.1247502.0704792-.5565056.2819172-1.0451687.5628418-1.4620562.6680646-.9409468 1.7937483-1.5328486 3.0941413-1.5328486 1.3013858 0 2.4618128.5574889 3.0941414 1.5328486.2819173.4168875.4923625.9055506.5628419 1.4620562.1052226.6272978.0704793 1.3578344-.1052227 2.1247502-.4218832 1.8455143-1.6527896 4.0744864-3.5517606 6.4774895zm14.0293551 1.6370704c-.2461813 1.8111013-1.476095 3.3783627-3.199364 4.0744864-.8437665.3480618-1.7580123.4532669-2.6722581.3480618-.8795025-.104222-1.7580123-.3824747-2.6722581-.9055507-1.2656498-.6961237-2.5312995-1.7757052-4.0083871-3.3773795 2.3208541-2.8218571 3.7274625-5.3988911 4.2545684-7.696689.2461813-1.0795816.2809246-2.0549413.1757019-2.9604919-.1409586-.8711378-.4576192-1.6714833-.9489891-2.3685902-1.0899478-1.5672614-2.9184394-2.472812-4.958369-2.472812-2.0389369 0-3.8674284.9409467-4.9573762 2.472812-.4923626.6971069-.8090232 1.4974524-.9489891 2.3685902-.1409587.9055506-.1062153 1.9153232.1757019 2.9604919.5271059 2.2977979 1.9684576 4.910228 4.2545684 7.7311019-1.4423443 1.6016743-2.7427374 2.6812558-4.0083871 3.3783628-.9142458.5220927-1.79374831.8013287-2.67225812.9055506-.9499818.1042219-1.8642276-.0353961-2.6722581-.3480618-1.72326897-.6971069-2.95417538-2.2643683-3.20035666-4.0754696-.10522265-.8701545-.03474332-1.7412924.31666061-2.716652.1062153-.3480619.28092459-.6961237.45761923-1.1139944.24618128-.5574889.52710589-1.1493906.80803049-1.7412924l.03573599-.069809c2.42607683-5.1884808 5.02785561-10.48315 7.73485706-15.63721793l.1062153-.2084438c.2809246-.52307595.5618492-1.07958157.8437665-1.60265753.2809246-.55748884.5975852-1.07958156.9837324-1.53186528.7385439-.83574166 1.723269-1.2890086 2.8132168-1.2890086s2.0746728.45326694 2.8132167 1.2890086c.3861473.45228372.7028078.97437644.9847251 1.53186528.2809247.52307596.5618492 1.07958158.8437665 1.60265753l.1052226.2084438c2.6722581 5.18946413 5.274037 10.48315003 7.7001137 15.67261403v.0344129c.2809247.5574889.5271059 1.1838035.8090232 1.7412924.175702.4178707.351404.7659325.4566266 1.1139944.2819173.9055507.38714 1.7766884.2461813 2.6822391z" fill="#ff5a5f" transform="translate(235.935813 9.9)"/><g transform="translate(0 12.767857)"><path d="m51.5120398 17.5361988-.8698093 2.4073921h-.072484c-.1449683-.5428434-.4107433-1.3689093-.845648-2.3601883l-4.6631443-11.44691312h-4.5664988v18.24425522h3.0201711v-11.258098c0-.7080564 0-1.5105205-.0241613-2.5017995-.0241614-.4956396-.0724842-.87326968-.0966455-1.15649227h.0724841c.1449682.70805647.3140978 1.22729787.4349047 1.55772427l5.6054377 13.3114618h2.1262005l5.5571149-13.4294712c.1208069-.3068245.2416138-.92047343.3624206-1.43971487h.0724842c-.0724842 1.34530737-.1208069 2.54900327-.1449683 3.28066167v11.5649225h3.2134622v-18.22065339h-4.3973693zm12.225653-6.3017027h3.1409781v13.075443h-3.1409781zm1.5946504-5.5228405c-.5315501 0-.9664548.18881506-1.3288753.51924141-.3624205.33042636-.5557115.75526024-.5557115 1.27450167 0 .49563953.193291.92047342.5557115 1.25089977s.7973252.49563954 1.3288753.49563954.9906162-.18881506 1.3288754-.49563954c.3624204-.33042635.5557114-.75526024.5557114-1.25089977 0-.49563955-.193291-.92047343-.5557114-1.27450167-.3140979-.33042635-.7731639-.51924141-1.3288754-.51924141zm12.6847191 5.4048312c-.5798729-.1180095-1.1839072-.1888151-1.7637801-.1888151-1.4255207 0-2.7302347.3068244-3.8174963.9204734-1.0872617.6136489-1.957071 1.4633167-2.5127825 2.5254014-.5798729 1.0856866-.8698093 2.3365864-.8698093 3.7763013 0 1.2508997.2899364 2.3601882.845648 3.3750692.5557114.991279 1.3288753 1.7937431 2.3678142 2.3365863.9906161.5428433 2.1503619.8260659 3.4550758.8260659 1.4980049 0 2.7785575-.3068245 3.7933351-.8732697l.0241613-.0236018v-2.8322259l-.1208069.0944075c-.459066.3304263-.9906161.6136489-1.5221662.7788621-.5557116.188815-1.0631003.2832226-1.4980049.2832226-1.2563913 0-2.2470074-.3540283-2.9476872-1.1328903-.724841-.7552603-1.0872616-1.7937431-1.0872616-3.0918467 0-1.3453073.3624206-2.407392 1.111423-3.1862542.7490025-.778862 1.7396186-1.1800941 2.9476871-1.1800941 1.0147776 0 2.0537165.3304264 2.9960098.9912791l.1208069.0944075v-2.9974391l-.0241613-.0236018c-.4107433-.1652132-.8698094-.3540283-1.4980049-.4720376zm10.3652275-.0944076c-.7731639 0-1.498005.2360188-2.1262006.7316584-.5315502.4248338-.8939706 1.0384828-1.2080685 1.7701411h-.0241613v-2.2893826h-3.140978v13.075443h3.140978v-6.6793328c0-1.1328904.2416136-2.0769657.7731638-2.7614202.5315501-.7080565 1.2080684-1.0620848 2.029555-1.0620848.2899365 0 .5798729.0708057.9422935.1180095.3382591.0944075.5798728.188815.7490024.3068244l.1208069.0944075v-3.0682447l-.0724842-.0236019c-.2174523-.1416113-.652357-.2124169-1.183907-.2124169zm8.5531248-.0708057c-2.1986847 0-3.9624647.6372509-5.1946945 1.8881506-1.2563912 1.2508998-1.8604254 2.9738373-1.8604254 5.1452104 0 2.029762.6281956 3.6818937 1.836264 4.8855897 1.2080685 1.1800942 2.8510417 1.7937431 4.904758 1.7937431 2.1503615 0 3.8658193-.6372508 5.0980483-1.9117524 1.256392-1.2745017 1.860426-2.9738373 1.860426-5.0744048 0-2.0769657-.579873-3.7290975-1.763779-4.9327935-1.135585-1.203696-2.8027192-1.7937431-4.8805974-1.7937431zm2.5127822 10.054402c-.5798724.7316583-1.4980048 1.0856867-2.6335891 1.0856867s-2.0537164-.3540284-2.7060733-1.1328904c-.6523571-.7316584-.9664549-1.7937431-.9664549-3.1390504 0-1.3925111.3382593-2.4545959.9664549-3.2098561.6523569-.7552602 1.5463276-1.1328904 2.6819119-1.1328904 1.111423 0 1.9812319.3540283 2.6094284 1.0856867.6281953.7316583.9664543 1.7937431.9664543 3.1862541-.048323 1.416113-.314098 2.5254015-.9181322 3.2570598zm11.1383922-4.3427463c-.990617-.4012321-1.618812-.7080566-1.908749-.9676772-.241613-.2360189-.362421-.5664452-.362421-.9912792 0-.3540282.144969-.7080564.507389-.9440753.362421-.2360188.773164-.3540282 1.377199-.3540282.531549 0 1.087261.0944075 1.618812.2360189.531549.1416112 1.014777.3540282 1.401359.6372508l.120806.0944075v-2.8794296l-.072484-.0236019c-.36242-.1416114-.845648-.2832226-1.42552-.4012321-.579874-.0944075-1.111424-.1416112-1.546328-.1416112-1.498005 0-2.730235.3540282-3.69669 1.1328904-.966454.7316583-1.42552 1.7229373-1.42552 2.8794296 0 .6136489.096645 1.1564923.314097 1.604928.217453.4484358.531551.8732696.966455 1.2272979.434905.3304263 1.0631.7080565 1.932909 1.0620847.724842.3068245 1.280553.5428434 1.618812.7316584.33826.1888151.555712.401232.724841.5664452.120807.1888151.193292.4248339.193292.7316584 0 .8732695-.676519 1.2981035-2.053716 1.2981035-.531551 0-1.087262-.0944076-1.73962-.3068245-.652356-.212417-1.256391-.5192414-1.76378-.8732696l-.120806-.0944075v2.997439l.072484.0236019c.459066.2124169 1.014777.3540283 1.691296.5192414.676518.1180095 1.280552.212417 1.812102.212417 1.618812 0 2.947688-.3540283 3.889981-1.1328904.966454-.7552602 1.473843-1.7229374 1.473843-2.9738373 0-.8732695-.241613-1.6521317-.773163-2.2421788-.70068-.5664452-1.570489-1.1564922-2.82688-1.6285298zm11.887393-5.7116557c-2.198685 0-3.962464.6372509-5.194694 1.8881506-1.23223 1.2508998-1.860426 2.9738373-1.860426 5.1452104 0 2.029762.628196 3.6818937 1.836265 4.8855897 1.208068 1.1800942 2.851041 1.7937431 4.904758 1.7937431 2.150361 0 3.865819-.6372508 5.098048-1.9117524 1.256392-1.2745017 1.860425-2.9738373 1.860425-5.0744048 0-2.0769657-.579872-3.7290975-1.763779-4.9327935-1.135585-1.203696-2.802719-1.7937431-4.880597-1.7937431zm2.488621 10.054402c-.579873.7316583-1.498004 1.0856867-2.633589 1.0856867-1.159746 0-2.053717-.3540284-2.706073-1.1328904-.652357-.7316584-.966455-1.7937431-.966455-3.1390504 0-1.3925111.338259-2.4545959.966455-3.2098561.652356-.7552602 1.546327-1.1328904 2.681912-1.1328904 1.087262 0 1.981232.3540283 2.609427 1.0856867.628196.7316583.966456 1.7937431.966456 3.1862541 0 1.416113-.314098 2.5254015-.918133 3.2570598zm20.947908-7.245778v-2.5254014h-3.16514v-3.87070872l-.096645.02360188-2.99601.87326965-.072484.02360189v2.9502353h-4.735629v-1.65213176c0-.75526024.193292-1.3453073.53155-1.72293743.338259-.37763012.845649-.56644518 1.473844-.56644518.434905 0 .89397.09440753 1.401359.30682448l.120808.07080564v-2.66701274l-.072484-.02360187c-.434906-.1416113-1.014778-.23601883-1.763781-.23601883-.942293 0-1.76378.21241694-2.512782.56644517-.749003.40123202-1.304714.94407531-1.715458 1.67573367-.410743.70805648-.628195 1.51052049-.628195 2.43099391v1.81734494h-2.198685v2.5017996h2.198685v10.5736434h3.165139v-10.5500416h4.735629v6.7265366c0 2.7614202 1.328875 4.1539314 3.986625 4.1539314.434905 0 .893971-.0708057 1.328876-.1416114.459067-.0944075.797325-.2124169.990616-.3068245l.024162-.0236018v-2.5254015l-.120807.0944075c-.193291.1180095-.362421.212417-.652357.2832226-.241614.0708058-.459066.0944076-.628195.0944076-.628196 0-1.063101-.1416113-1.377199-.4956395-.289936-.3304264-.434905-.8732697-.434905-1.6757336v-6.1836934z" fill="#737373"/><path d="m0 0h14.8109195v14.4679541h-14.8109195z" fill="#f25022"/><path d="m16.3572472 0h14.8109195v14.4679541h-14.8109195z" fill="#7fba00"/><path d="m0 15.9784745h14.8109195v14.4679541h-14.8109195z" fill="#00a4ef"/><path d="m16.3572472 15.9784745h14.8109195v14.4679541h-14.8109195z" fill="#ffb900"/></g><path d="m46.358231 7.94680989c-5.3183979-5.29737961-11.7141543-7.94680989-19.1890533-7.94680989-7.4763858 0-13.8739263 2.64943028-19.19232425 7.94680989-5.31839792 5.29737961-7.97685345 11.66874851-7.97685345 19.11410671 0 7.4965992 2.65845553 13.8804082 7.97685345 19.1529077 5.31839795 5.2724996 11.71593845 7.9077127 19.19232425 7.9077127 7.474899 0 13.8706554-2.6352131 19.1890533-7.9077127 5.3183978-5.2724995 7.9783402-11.6563085 7.9783402-19.1529077 0-7.4453582-2.6599424-13.8167271-7.9783402-19.11410671zm-.8864789 37.30906161c-5.0367058 5.0415142-11.1385543 7.5615321-18.3040605 7.5615321-7.1156055 0-13.2049789-2.5200179-18.26663505-7.5615321-5.0616561-5.04181-7.59174158-11.1069428-7.59174158-18.194216 0-7.1372419 2.53008548-13.2150887 7.59174158-18.23176636 5.06165615-5.01667769 11.15102955-7.52575572 18.26663505-7.52575572 7.1153085 0 13.2046818 2.52179195 18.266338 7.56330615 5.061656 5.04151413 7.5932267 11.10694273 7.5932267 18.19421593s-2.5190955 13.152406-7.5555042 18.194216zm2.207034-30.7337851c-2.4580482-3.9957319-5.9195271-6.66744293-10.382356-8.01661265-2.1572569-.64943586-3.9866749-.97430172-5.4915235-.97430172-1.6555416 0-3.0334753.41214767-4.1370706 1.2367389-1.1035954.82429537-1.9046159 1.23496369-2.4063312 1.23496369-1.253991 0-1.8811351-.59943374-1.8811351-1.79859709 0-.89796712.4749651-1.63498066 1.4281646-2.20956128.9531997-.57458061 2.2324548-.86187091 3.8374682-.86187091 2.557024 0 4.4880929.32486585 5.7926121.97430172l.0751979-.22486162c-2.3578836-.84944436-4.9146104-1.27401859-7.671964-1.27401859-4.6153051 0-8.7271116 1.12430809-12.3372028 3.37114907-3.9631942 2.44832881-6.62038298 5.89581248-7.97305259 10.34126748-.65211099 2.0986099-.97816648 3.9208766-.97816648 5.4697589 0 1.6488866.41225066 3.0338567 1.23972422 4.1581647.82777079 1.1243082 1.24180479 1.9346976 1.24180479 2.4341271 0 1.1991633-.60217723 1.7988929-1.80593727 1.7988929-2.05679493 0-3.08340904-1.7471155-3.08340904-5.2448972 0-2.0486077.3007914-3.9705828.90267141-5.7694757l-.22559355-.0748553c-.80280391 3.1977689-1.20405725 5.7443268-1.20405725 7.6414487 0 4.6469429 1.12737329 8.7675321 3.38449766 12.3635428 2.45834549 3.947209 5.918041 6.5940669 10.3826532 7.9414614 2.1052426.6497318 3.9361467.9743018 5.4912263.9743018 1.6540555 0 3.0319892-.4230949 4.1355845-1.2725393 1.1035954-.8494443 1.9061021-1.2740186 2.4078173-1.2740186 1.2539911 0 1.8811352.6245828 1.8811352 1.8737483 0 .8494443-.4764513 1.5598295-1.4296508 2.1344101-.9531996.5745806-2.2306714.8618709-3.835982.8618709-2.3578836 0-4.2874663-.2997169-5.792315-.8994464l-.075495.2248616c1.7542201.7994422 4.3112443 1.1991633 7.6722612 1.1991633 4.6135217 0 8.7253282-1.1225329 12.3372027-3.371149 3.9614109-2.4483289 6.6183025-5.8943331 7.9727554-10.3412676.6524082-2.1471326.9784638-3.9457296.9784638-5.3949036 0-1.6971135-.414034-3.1072326-1.2418049-4.2312448-.8274735-1.124308-1.2400214-1.9113238-1.2400214-2.361047 0-1.2491655.6021772-1.8737482 1.8059372-1.8737482.9014826 0 1.6412748.4872988 2.218188 1.4616005.5769131.9743017.8655183 2.2592675.8655183 3.858152 0 1.7488909-.3010886 3.6726412-.9029686 5.7694758l.2255935.0751512c.8028039-2.3968474 1.2040573-4.9685543 1.2040573-7.7165999 0-4.5954615-1.1285622-8.6660485-3.3844977-12.2135364zm-7.85153 24.424075c-1.3809451 1.4237789-3.0989457 2.1340413-5.1575715 2.1340413-2.4602363 0-4.4168232-.8989952-5.8712483-2.6975773-1.3053829-1.5471357-1.9580744-3.3954155-1.9580744-5.5436563 0-3.8950544 1.7807708-6.7662778 5.3455847-8.6145576-.2510809-.1999741-.5021619-.4996391-.7532428-.8992912-2.1086039 1.4989171-4.4168233 2.9475449-6.9255503 4.3447001-.2008052 3.1972164-.5271509 5.4688139-.9790372 6.8177505-1.45621 4.3961725-3.9146614 6.5926318-7.377734 6.5926318-1.4056369 0-2.4852254-.4245008-3.2384683-1.2737984-.7529453-.8492976-1.1280793-1.8719454-1.1280793-3.0709015 0-1.8982734.902285-3.6702317 2.7098298-5.3188335.9537507-.8492976 2.1321057-1.6985952 3.5380399-2.5478927.7029673-.3996521 2.1573923-1.1723325 4.3665476-2.3212952.1005514-.599626.1758162-1.0741203.2260919-1.4237789-.7532429.6993172-1.7572692 1.0489757-3.010889 1.0489757-1.7072909 0-2.7615928-.9226608-3.1632034-2.7709406-2.4602363-.1999739-3.7138562-1.5486148-3.7641318-4.0465141-.0502757-2.1467616.5521401-3.220882 1.8075448-3.220882.4016106 0 .6024158.2248228.6024158.6744684 0 .0499934-.0627702.3372341-.1883107.861722-.1255404.5247837-.1883107.9868536-.1883107 1.3847307 0 1.4989171.5524376 2.2482277 1.6570152 2.2482277 0-2.0467746.6384121-4.0435558 1.9188059-5.9918227 1.2803938-1.9482667 2.7223243-2.9224001 4.3290639-2.9224001 1.7069934 0 2.5604902.7993041 2.5604902 2.3964333 0 1.6985951-.6901752 3.3968945-2.0711204 5.0940106-1.3806477 1.6985952-2.8225782 2.7960853-4.3287664 3.2957243.2008053.7493106.6274049 1.123818 1.2803939 1.123818 1.1027927 0 2.1573922-.6244748 3.1614185-1.8734244.5021619-2.5461179 1.4797117-3.8199164 2.9356241-3.8199164.6027133 0 .9037724.3245139.9037724.9741334 0 .8492976-.7029671 2.0231092-2.1071165 3.5202513-.1505295.7493106-.2260918 1.4989171-.2260918 2.2482276 2.5593002-1.5471355 4.5423637-2.8212299 5.948298-3.8202121-.1005514-.3496585-.1505296-.9241399-.1505296-1.723444 0-1.8470966.5256636-3.5439169 1.5799656-5.0925315 1.054302-1.5489106 2.3346958-2.3230701 3.840884-2.3230701 1.7557817 0 2.6345651.8492976 2.6345651 2.5461178 0 2.0982473-1.7572692 4.4698317-5.2706176 7.1159366.3013567.6993171.7029672 1.1738114 1.2051291 1.4237789.1005514-.1999739.7264688-.2996651 1.8813222-.2996651 1.4559125 0 2.1841663.3745074 2.1841663 1.123818 0 .8492976-.8534968 1.2740943-2.5593003 1.2740943-.3513348.0499936-.8784859 0-1.581453-.1499804-3.2134791.8492976-4.8184338 3.2223611-4.8184338 7.1159365 0 1.6982993.4878825 3.1596474 1.4669196 4.3837482.9790372 1.223805 2.2216499 1.8343763 3.7281356 1.8343763 1.2551073 0 2.3079219-.4233176 3.1614185-1.2726153.8534968-.8490017 1.2803938-1.9482667 1.2803938-3.2969075.0502758-2.4464267-.8032209-3.6705275-2.5590027-3.6705275-1.1045776 0-1.6820043.5496325-1.73228 1.6486016 0 .5496326.1758161 1.0492715.527151 1.4989172.3516324.4496455.527151.8226738.527151 1.1223388 0 .6493237-.3513348.9741335-1.054302.9741335-.7532428 0-1.3806477-.3248098-1.8828096-.9741335-.5021619-.6493236-.7532428-1.4486277-.7532428-2.3979123 0-1.1474836.4379042-2.1216169 1.31639-2.920921.8787833-.7993041 1.9455798-1.1989562 3.2009846-1.1989562 1.5564639 0 2.7847971.5744814 3.6885694 1.723444.9037725 1.1489627 1.3556587 2.5464137 1.3556587 4.1950154 0 1.7482929-.6901751 3.3344767-2.0708229 4.7582556zm-3.6645275-24.6006938c-.5694874 0-1.174111.5242776-1.814714 1.5725506-.640322 1.0485551-.9604829 2.2621815-.9604829 3.6439831 2.1820979-1.9046682 3.2732875-3.3818443 3.2732875-4.4301173 0-.5242775-.166124-.7864164-.4980906-.7864164zm-13.1482933 0c-.790513 0-1.6600148.7782553-2.6085055 2.3347657-.9484907 1.5565105-1.4208627 2.9506407-1.4208627 4.1859014 1.2644461-.6422068 2.3431278-1.579624 3.2388552-2.8148847.8957273-1.2352609 1.3437472-2.2976085 1.3437472-3.1867505 0-.3458262-.1845155-.5190319-.5532342-.5190319zm-8.6119707 22.1694363c0 1.304589.590744 1.9570321 1.7719275 1.9570321 1.5394038 0 2.9007626-1.0773036 4.0822505-3.2348816.9742252-1.8061026 1.6419698-3.9871519 2.0017118-6.5461192-5.2378685 2.5087565-7.8558898 5.1161518-7.8558898 7.8239687z" fill="#3b73b9" transform="translate(438.874814)"/></g><g transform="translate(873 1)"><g fill="#000"><path d="m71.6648745 20.1348c-1.2435319 0-1.7546171.938617-1.7546171 1.754617.0108511.825766.5306171 1.743766 1.7654681 1.743766 1.050383 0 1.7535319-.795383 1.7535319-1.754617-.0097659-.907149-.6217659-1.743766-1.7643829-1.743766zm-.009766.428617c.795383 0 1.326.5208511 1.335766 1.305383 0 .785617-.540383 1.346617-1.326 1.346617-.7856171 0-1.305383-.540383-1.315149-1.316234-.010851-.795383.51-1.335766 1.305383-1.335766zm-.3678511 1.53h.3070852l.4177659.744383h.489383l-.4492341-.785617c.3168511-.030383.5002341-.162766.5002341-.519766 0-.428617-.2452341-.571851-.632617-.581617h-1.060149v1.896766h.438383zm.4394681-.806234c.244149 0 .397149.030383.397149.245234-.009766.153-.102.213766-.306.213766h-.5306171v-.459z"/><path d="m15.6468 24.1843085 2.04-.0097659.009766 9.6172978h-2.04z"/><path d="m15.6468 20.277817 2.030234-.010851.009766 3.040468-2.04.009766z"/><path d="m62.628 20.2063085 2.030234-.0097659.030383 13.5247659h-2.050851z"/><path d="m66.095783 20.196217h2.030234l.030383 13.524766h-2.04z"/><path d="m.00021702 24.204383 11.32199998-.009766c1.896766 0 2.437149 1.488766 2.406766 2.386149-.030383.898468-.397149 1.714468-.9082341 1.958617.9386171.438383 1.5408511 1.571234 1.5202341 2.519617-.081383 2.55-2.559766 2.754-3.610149 2.754l-10.70999996.009766zm10.57761698 8.150234c.825766 0 1.509383-.581617 1.509383-1.4084681 0-.816-.683617-1.4887659-1.509383-1.4887659l-8.52785102.010851v2.896149zm-.316851-4.345851c.714 0 1.285851-.489383 1.275-1.182766 0-.7031489-.570766-1.182766-1.284766-1.173l-8.21099998.009766v2.366617z"/><path d="m51.642383 24.133417c-.744383 0-2.519617.387383-2.55 2.070383-.030383 1.437766.744383 2.091 1.234851 2.253766-.632617.265851-1.214234 1.387851-1.204468 2.356851 0 .978766.367851 2.9265319 3.550468 2.9265319l8.710149-.0097659-.009766-1.437766-8.466.009766c-.836617 0-1.5104681-.581617-1.5104681-1.407383-.0097659-.816.6640851-1.4898511 1.5104681-1.4898511l8.0265319-.0097659-.0097659-1.4475319-8.220766.0097659c-.714 0-1.295617-.489383-1.295617-1.193617-.0108511-.704234.5718511-1.193617 1.284766-1.193617l8.660234-.009766v-1.438851z"/><path d="m45.441217 27.1524h2.070383c0-2.366617-1.080766-3.039383-3.998617-3.009l-5.640383.009766c-1.265234 0-3.488617.581617-3.498383 2.5293829.009766 1.9488511.7552341 2.7442341 3.039383 2.7442341l6.741766-.009766c.7660851 0 1.5603829.479617 1.5603829 1.377s-.4579149 1.550617-1.8663829 1.519149l-5.313766.010851c-.693383 0-2.121383-.0824681-2.121383-1.571234h-2.04c.009766 1.173.244149 3.009 3.366 3.009l6.670149-.009766c1.316234 0 3.458234-.632617 3.458234-3.039383 0-2.417617-2.019383-2.744234-3.141383-2.744234l-6.742851.009766c-1.101383 0-1.458383-.672766-1.458383-1.192532 0-.520851.357-1.193617 1.458383-1.193617l5.865-.010851c.959234 0 1.591851.377617 1.591851 1.571234"/><path d="m30.8754 27.1524h2.070383c0-2.366617-1.080766-3.039383-3.998617-3.009l-5.640383.009766c-1.2652341 0-3.4875319.581617-3.498383 2.5293829.0108511 1.9488511.755234 2.7442341 3.039383 2.7442341l6.7417659-.009766c.7660851 0 1.5614681.479617 1.5614681 1.377s-.459 1.550617-1.866383 1.519149l-5.314851.010851c-.693383 0-2.121383-.0824681-2.121383-1.571234h-2.04c.0108511 1.173.2441489 3.009 3.366 3.009l6.671234-.009766c1.315149 0 3.457149-.632617 3.457149-3.039383 0-2.417617-2.019383-2.744234-3.141383-2.744234l-6.7428511.009766c-1.1013829 0-1.4583829-.672766-1.4583829-1.192532 0-.520851.357-1.193617 1.4583829-1.193617l5.8660851-.010851c.958149 0 1.590766.377617 1.590766 1.571234"/></g><path d="m62.0569085 50.9998915c3.182617-.0108511 1.907617-2.9992341 1.335766-4.008383-.856149-1.469234-5.253-9.3438511-5.253-9.3438511l-47.3996171.0716171s-4.38491485 7.8843829-5.23238293 9.353617c-.561.999383-1.84576596 3.9161489 1.326 3.9161489z" fill="#ea2227"/><path d="m.16450213 20.348783 28.74338297-.009766s-7.200766-13.19923402-8.925-16.238617c-1.560383-2.76376596-2.508766-4.11038298-5.549234-4.10061702-3.0296171 0-3.8749149 1.34661702-5.48738301 4.19285106-1.56038298 2.77353192-8.78176596 16.15614896-8.78176596 16.15614896" fill="#ea2227" mask="url(#a)" transform="translate(19.531915)"/></g><g transform="translate(583.519447 19.642857)"><path d="m78.1804368 7.82732601c0-2.77175824-2.0275517-5.24373627-5.6936434-5.24373627-3.6664961 0-5.6726158 2.47197803-5.6726158 5.24373627v.34369963c0 2.77256406 2.0061197 5.28684986 5.6726158 5.28684986 3.6660917 0 5.6936434-2.5142858 5.6936434-5.28684986zm-5.6936434 7.88695969c-5.089907 0-8.3896321-3.652967-8.3896321-7.45703295v-.47263737c0-3.86853479 3.2997251-7.45703296 8.3896321-7.45703296 5.111339 0 8.4114685 3.58849817 8.4114685 7.45703296v.47263737c0 3.80406595-3.3001295 7.45703295-8.4114685 7.45703295z" fill="#388db9" mask="url(#b)"/><g fill="#0a0b09"><path d="m8.82110352 3.63684982-3.12705572 6.01736263h6.3620804zm6.18981528 11.51857138-1.8977463-3.5457875h-8.43290056l-1.83345023 3.5457875h-2.84682171l7.76405921-14.31208787h2.24308519l7.8938646 14.31208787z" mask="url(#b)"/><path d="m30.1508343 15.7142857c-5.1546074 0-7.5485257-2.7939194-7.5485257-6.5113553v-8.35959707h2.6741523v8.4023077c0 2.64362637 1.7469133 4.21223447 5.0680705 4.21223447 3.4080985 0 4.8096729-1.5686081 4.8096729-4.21223447v-8.4023077h2.6959887v8.35959707c0 3.5457875-2.2863537 6.5113553-7.6993587 6.5113553"/><path d="m52.8611119 3.07838828v12.07703292h-2.6959887v-12.07703292h-6.2763523v-2.23505495h15.2478844v2.23505495z"/><path d="m104.923981 15.1554212v-11.32516479l-.712109 1.24666667-6.0171463 10.07849812h-1.3158463l-5.9524454-10.07849812-.7113011-1.24666667v11.32516479h-2.6312881v-14.31208787h3.7307922l5.6722113 9.82102567.668437 1.2031502.6688414-1.2031502 5.6075113-9.82102567h3.688332v14.31208787z"/><path d="m121.81081 3.63684982-3.127056 6.01736263h6.362081zm6.189815 11.51857138-1.897746-3.5457875h-8.4329l-1.833046 3.5457875h-2.846822l7.764059-14.31208787h2.243085l7.893461 14.31208787z"/><path d="m141.759994 3.07838828v12.07703292h-2.695584v-12.07703292h-6.275948v-2.23505495h15.247884v2.23505495z"/><path d="m161.537317 3.07838828v12.07703292h-2.695584v-12.07703292h-6.276352v-2.23505495h15.247884v2.23505495z"/><path d="m174.45558 15.1554212v-12.95824171c1.078476 0 1.509543-.58021978 1.509543-1.35384616h1.143177v14.31208787z"/><path d="m198.222497 4.88311355c-1.29401-1.18179487-3.191756-2.29952381-5.758344-2.29952381-3.838761 0-5.995714 2.62227107-5.995714 5.35131868v.2796337c0 2.70769228 2.178385 5.24333338 6.189816 5.24333338 2.394322 0 4.378201-1.1390843 5.629347-2.2995239l1.617512 1.6975458c-1.574648 1.5472528-4.2488 2.8583883-7.419124 2.8583883-5.435246 0-8.734971-3.5244322-8.734971-7.39296702v-.47263736c0-3.86813187 3.601391-7.5210989 8.863967-7.5210989 3.041328 0 5.801613 1.26761905 7.290128 2.85798535z"/><path d="m74.2620132 5.30699634c.4864668.31227106.6223378.96139194.3069229 1.4485348l-2.4586187 3.79479856c-.3154149.4875458-.9656549.6285714-1.4509086.3163003-.4852537-.3130769-.6231466-.96058604-.3069229-1.44813183l2.4590231-3.79479854c.3158193-.48714285.9652505-.62897436 1.4505042-.31670329"/></g></g><path d="m9.83666104 15.7313665c-3.34205297 0-5.49543761-2.3913044-5.49543761-5.94409942 0-3.55279503 2.13615757-5.94409938 5.49543761-5.94409938 2.32565536 0 4.04836316 1.07608696 5.01307946 2.71583851l2.8941489-2.47670807c-1.5332098-2.34006212-4.0655902-4.01397516-7.90722836-4.01397516-6.11561238 0-9.73329858 4.50931677-9.73329858 9.7189441 0 5.20962732 3.6176862 9.71894412 9.73329858 9.71894412 3.82441116 0 6.35679146-1.6739131 7.90722836-4.0139752l-2.8941489-2.476708c-.9647163 1.6397515-2.6874241 2.7158385-5.01307946 2.7158385zm27.99400036 3.7748447c5.7366166 0 9.7677527-4.0139752 9.7677527-9.71894412 0-5.70496894-4.0483631-9.7189441-9.7677527-9.7189441s-9.7505257 4.01397516-9.7505257 9.7189441c0 5.72204972 4.013909 9.71894412 9.7505257 9.71894412zm0-3.7406832c-3.2903718 0-5.581573-2.4596274-5.581573-5.97826092 0-3.53571428 2.2912012-5.97826087 5.581573-5.97826087 3.3248258 0 5.6160271 2.45962733 5.6160271 5.97826087-.0172271 3.53571432-2.3084283 5.97826092-5.6160271 5.97826092zm25.6166636 3.4332298h4.3929047v-15.01397519h6.4256998l-.3273145-3.82608696h-16.520767l-.3273144 3.82608696h6.3567914zm33.1104423-4.5434783c0-1.7080745.4306769-2.5108696 2.1361575-4.423913l1.8088432-2.03260874c2.084476-2.35714285 2.94583-4.27018633 2.94583-7.41304347v-.40993789h-4.3412233v.32453416c0 2.69875776-.4823582 3.70652174-2.1706118 5.61956522l-1.2575766 1.43478261c-.7235372.83695652-1.2403495 1.63975155-1.2403495 1.63975155s-.5168123-.80279503-1.2403496-1.63975155l-1.2748037-1.43478261c-1.6882535-1.91304348-2.1706117-2.92080746-2.1706117-5.61956522v-.32453416h-4.461813v.40993789c0 3.14285714.878581 5.05590062 2.9630573 7.41304347l1.8088431 2.03260874c1.7227077 1.9130434 2.1361575 2.7158385 2.1361575 4.423913v4.5434783h4.3412235v-4.5434783z" fill="#3d195b" fill-rule="nonzero" transform="translate(1036 17.678571)"/></g></svg>